<svg width="18" height="19" viewBox="0 0 18 19" fill="none" xmlns="http://www.w3.org/2000/svg">
<path d="M6.75 2.73779H3C2.58579 2.73779 2.25 3.07358 2.25 3.48779V8.73779C2.25 9.15201 2.58579 9.48779 3 9.48779H6.75C7.16421 9.48779 7.5 9.15201 7.5 8.73779V3.48779C7.5 3.07358 7.16421 2.73779 6.75 2.73779Z" stroke="#52677D" stroke-width="2" stroke-linecap="round" stroke-linejoin="round"/>
<path d="M15 2.73779H11.25C10.8358 2.73779 10.5 3.07358 10.5 3.48779V5.73779C10.5 6.15201 10.8358 6.48779 11.25 6.48779H15C15.4142 6.48779 15.75 6.15201 15.75 5.73779V3.48779C15.75 3.07358 15.4142 2.73779 15 2.73779Z" stroke="#52677D" stroke-width="2" stroke-linecap="round" stroke-linejoin="round"/>
<path d="M15 9.48779H11.25C10.8358 9.48779 10.5 9.82358 10.5 10.2378V15.4878C10.5 15.902 10.8358 16.2378 11.25 16.2378H15C15.4142 16.2378 15.75 15.902 15.75 15.4878V10.2378C15.75 9.82358 15.4142 9.48779 15 9.48779Z" stroke="#52677D" stroke-width="2" stroke-linecap="round" stroke-linejoin="round"/>
<path d="M6.75 12.4878H3C2.58579 12.4878 2.25 12.8236 2.25 13.2378V15.4878C2.25 15.902 2.58579 16.2378 3 16.2378H6.75C7.16421 16.2378 7.5 15.902 7.5 15.4878V13.2378C7.5 12.8236 7.16421 12.4878 6.75 12.4878Z" stroke="#52677D" stroke-width="2" stroke-linecap="round" stroke-linejoin="round"/>
</svg>
